<svg width="21" height="21" viewBox="0 0 21 21" fill="none" xmlns="http://www.w3.org/2000/svg">
<path d="M4.875 0.5C5.04076 0.5 5.19973 0.565848 5.31694 0.683058C5.43415 0.800269 5.5 0.95924 5.5 1.125V1.75H15.5V1.125C15.5 0.95924 15.5658 0.800269 15.6831 0.683058C15.8003 0.565848 15.9592 0.5 16.125 0.5C16.2908 0.5 16.4497 0.565848 16.5669 0.683058C16.6842 0.800269 16.75 0.95924 16.75 1.125V1.75H18C18.663 1.75 19.2989 2.01339 19.7678 2.48223C20.2366 2.95107 20.5 3.58696 20.5 4.25V18C20.5 18.663 20.2366 19.2989 19.7678 19.7678C19.2989 20.2366 18.663 20.5 18 20.5H3C2.33696 20.5 1.70107 20.2366 1.23223 19.7678C0.763392 19.2989 0.5 18.663 0.5 18V4.25C0.5 3.58696 0.763392 2.95107 1.23223 2.48223C1.70107 2.01339 2.33696 1.75 3 1.75H4.25V1.125C4.25 0.95924 4.31585 0.800269 4.43306 0.683058C4.55027 0.565848 4.70924 0.5 4.875 0.5V0.5ZM3 3C2.66848 3 2.35054 3.1317 2.11612 3.36612C1.8817 3.60054 1.75 3.91848 1.75 4.25V5.5H19.25V4.25C19.25 3.91848 19.1183 3.60054 18.8839 3.36612C18.6495 3.1317 18.3315 3 18 3H3ZM19.25 6.75H1.75V18C1.75 18.3315 1.8817 18.6495 2.11612 18.8839C2.35054 19.1183 2.66848 19.25 3 19.25H18C18.3315 19.25 18.6495 19.1183 18.8839 18.8839C19.1183 18.6495 19.25 18.3315 19.25 18V6.75Z" fill="#727272"/>
</svg>
