<svg width="25" height="24" viewBox="0 0 25 24" fill="none" xmlns="http://www.w3.org/2000/svg">
<path d="M7.57254 9.813L5.51454 11.871C4.67056 12.715 4.19641 13.8597 4.19641 15.0532C4.19641 16.2468 4.67056 17.3915 5.51454 18.2355C6.35853 19.0795 7.50322 19.5536 8.69679 19.5536C9.89037 19.5536 11.0351 19.0795 11.879 18.2355L14.621 15.492C15.13 14.983 15.5094 14.3593 15.7274 13.6733C15.9455 12.9873 15.9958 12.259 15.8741 11.5496C15.7524 10.8402 15.4623 10.1702 15.0282 9.59611C14.594 9.02197 14.0285 8.56035 13.379 8.25L12.5 9.129C12.4108 9.2184 12.3332 9.31869 12.269 9.4275C12.7708 9.57175 13.2263 9.84447 13.5904 10.2187C13.9545 10.5929 14.2146 11.0557 14.345 11.5612C14.4755 12.0668 14.4717 12.5976 14.3341 13.1013C14.1966 13.6049 13.9299 14.064 13.5605 14.433L10.82 17.175C10.2571 17.7379 9.49363 18.0542 8.69754 18.0542C7.90145 18.0542 7.13796 17.7379 6.57504 17.175C6.01212 16.6121 5.69587 15.8486 5.69587 15.0525C5.69587 14.2564 6.01212 13.4929 6.57504 12.93L7.76454 11.742C7.59671 11.1131 7.53188 10.4611 7.57254 9.8115V9.813Z" fill="#EE7A45"/>
<path d="M10.379 7.0074C9.87001 7.51641 9.4906 8.14009 9.27257 8.82608C9.05453 9.51206 9.00424 10.2403 9.12591 10.9498C9.24758 11.6592 9.53766 12.3291 9.97181 12.9033C10.4059 13.4774 10.9715 13.939 11.621 14.2494L12.7835 13.0854C12.2749 12.949 11.8112 12.6811 11.4389 12.3087C11.0666 11.9363 10.799 11.4725 10.6628 10.9638C10.5266 10.4552 10.5266 9.91967 10.663 9.41107C10.7993 8.90247 11.0671 8.43871 11.4395 8.0664L14.1799 5.3244C14.7429 4.76147 15.5064 4.44523 16.3024 4.44523C17.0985 4.44523 17.862 4.76147 18.4249 5.3244C18.9879 5.88732 19.3041 6.6508 19.3041 7.4469C19.3041 8.24299 18.9879 9.00647 18.4249 9.5694L17.2354 10.7574C17.4034 11.3874 17.4679 12.0399 17.4274 12.6879L19.4854 10.6299C20.3294 9.78591 20.8036 8.64122 20.8036 7.44765C20.8036 6.25407 20.3294 5.10938 19.4854 4.2654C18.6415 3.42141 17.4968 2.94727 16.3032 2.94727C15.1096 2.94727 13.9649 3.42141 13.1209 4.2654L10.379 7.0074Z" fill="#EE7A45"/>
</svg>
