<svg width="188" height="33" viewBox="0 0 188 33" fill="none" xmlns="http://www.w3.org/2000/svg">
<g clip-path="url(#clip0_3343_4155)">
<path d="M45.8394 12.0876C45.8394 12.0876 44.9805 6.72058 48.9347 5.98459C52.889 5.2486 55.5562 5.16567 56.6731 8.36101C57.79 11.5563 56.6731 12.0876 56.6731 12.0876H45.8394Z" fill="#FFD170"/>
<path d="M17.0707 17.8981C17.0707 17.8981 16.057 12.9742 19.5728 12.233C23.0886 11.4919 26.8984 10.9813 27.8915 14.1767C28.8846 17.372 25.3765 18.66 25.3765 18.66L17.0707 17.8981Z" fill="#F2A6D6"/>
<path d="M135.898 6.48047H130.876C129.222 6.48047 127.881 7.82753 127.881 9.48922V14.8381C127.881 16.4998 129.222 17.8468 130.876 17.8468H135.898C137.552 17.8468 138.893 16.4998 138.893 14.8381V9.48922C138.893 7.82753 137.552 6.48047 135.898 6.48047Z" fill="#9FC65F"/>
<path d="M168.257 5.98438H162.951C161.156 5.98438 159.701 7.4463 159.701 9.24968V15.2024C159.701 17.0058 161.156 18.4677 162.951 18.4677H168.257C170.052 18.4677 171.507 17.0058 171.507 15.2024V9.24968C171.507 7.4463 170.052 5.98438 168.257 5.98438Z" fill="#9FB5F9"/>
<path d="M7.46188e-05 12.2457C-0.00565916 11.3846 0.0339493 10.5239 0.118731 9.66711C0.179068 9.00339 0.317605 8.3492 0.531439 7.71829C0.705815 7.20934 0.978423 6.73995 1.33365 6.33701C1.69039 5.9538 2.12258 5.64933 2.60273 5.44294C3.18441 5.19669 3.79728 5.03272 4.42382 4.95574C5.23985 4.85126 6.06201 4.80277 6.8846 4.81061C7.92388 4.78889 8.96226 4.88539 9.97993 5.09827C10.6787 5.23846 11.3351 5.5411 11.8965 5.98197C12.3641 6.37657 12.7052 6.90134 12.8766 7.49024C13.0709 8.19987 13.163 8.93382 13.1501 9.6697H11.2671C11.2671 9.36649 11.2671 9.08402 11.249 8.82227C11.2388 8.57961 11.1909 8.34002 11.1071 8.1122C11.0217 7.895 10.8896 7.69944 10.7202 7.53948C10.5008 7.348 10.2444 7.20418 9.96704 7.11706C9.56485 6.986 9.14972 6.89911 8.72891 6.85791C7.4142 6.73307 6.09036 6.74089 4.7772 6.88123C4.29141 6.93182 3.81537 7.05226 3.36367 7.23886C3.02334 7.38114 2.72623 7.61083 2.50214 7.90488C2.28679 8.21657 2.13753 8.5694 2.06363 8.94148C1.96316 9.4101 1.90873 9.88751 1.90113 10.3668C1.88565 10.9145 1.87791 11.5434 1.87791 12.2534C1.87791 12.9635 1.88565 13.5812 1.90113 14.1064C1.9091 14.5797 1.96353 15.051 2.06363 15.5136C2.13879 15.8781 2.28808 16.223 2.50214 16.5268C2.72766 16.8195 3.02436 17.0488 3.36367 17.1929C3.81405 17.3849 4.29051 17.508 4.7772 17.5583C5.47679 17.6378 6.18058 17.6742 6.8846 17.6671C7.50068 17.6733 8.11657 17.6422 8.72891 17.5738C9.14991 17.5266 9.56486 17.4354 9.96704 17.3017C10.2454 17.2105 10.5019 17.0623 10.7202 16.8663C10.8914 16.6988 11.0235 16.4952 11.1071 16.2703C11.1908 16.0308 11.2386 15.7801 11.249 15.5265C11.2619 15.2674 11.2671 14.9616 11.2671 14.648H13.1449C13.1574 15.4018 13.0653 16.1536 12.8715 16.8819C12.7053 17.4863 12.3642 18.0275 11.8913 18.4368C11.332 18.8848 10.6754 19.1938 9.97477 19.3386C8.95786 19.5572 7.91913 19.6563 6.87944 19.6341C6.0567 19.6417 5.23443 19.5915 4.41866 19.4838C3.79236 19.4055 3.17965 19.2416 2.59757 18.9966C2.11674 18.7902 1.68439 18.4847 1.32849 18.0999C0.974981 17.6977 0.702541 17.2303 0.526283 16.7238C0.312286 16.1018 0.173714 15.4562 0.113571 14.8009C0.0301989 13.9518 -0.00768815 13.0988 7.46188e-05 12.2457Z" fill="#222222"/>
<path d="M27.3963 17.4116C27.2818 17.6752 27.1335 17.9226 26.9552 18.1476C26.7486 18.4536 26.486 18.7174 26.1814 18.925C25.7819 19.1773 25.3394 19.353 24.8762 19.4433C24.1707 19.5852 23.4519 19.6487 22.7327 19.6325C21.7212 19.6458 20.7105 19.5704 19.7121 19.4071C18.9958 19.2951 18.3045 19.0583 17.6692 18.7073C17.1722 18.4281 16.767 18.0093 16.5033 17.5023C16.2462 16.9543 16.1207 16.3534 16.137 15.7478C16.125 15.1369 16.1926 14.527 16.3382 13.9338C16.4498 13.4844 16.6488 13.0616 16.9238 12.6899C17.1727 12.3633 17.4919 12.0975 17.8575 11.9124C18.2515 11.7131 18.6707 11.5684 19.1034 11.4822C19.6073 11.3787 20.119 11.3171 20.633 11.2982C21.1876 11.2723 21.7757 11.2619 22.4025 11.2619C23.1504 11.2523 23.8979 11.2991 24.6389 11.4019C25.1395 11.4708 25.632 11.5898 26.1091 11.7569C26.4206 11.8634 26.7132 12.0191 26.9758 12.2182C27.138 12.3471 27.2798 12.5 27.3963 12.6717C27.3963 11.7569 27.3653 10.9743 27.3034 10.3393C27.2596 9.79011 27.1576 9.24714 26.9991 8.71965C26.8888 8.3414 26.7047 7.98901 26.4574 7.68305C26.2363 7.42625 25.9567 7.22706 25.6423 7.10255C25.2805 6.96038 24.8998 6.87304 24.5125 6.8434C24.0817 6.80712 23.5916 6.78898 23.037 6.78898C22.1755 6.78898 21.4636 6.81489 20.8961 6.86931C20.4323 6.89836 19.9764 7.00431 19.547 7.18288C19.247 7.31034 18.9994 7.53714 18.8454 7.82558C18.6953 8.16339 18.6247 8.5314 18.6391 8.90106H16.7638C16.7462 8.25574 16.854 7.61315 17.0811 7.00925C17.2958 6.49129 17.6642 6.0524 18.1361 5.75237C18.7301 5.39114 19.3893 5.15157 20.0758 5.04748C21.0544 4.88526 22.0453 4.81068 23.037 4.82461C24.0198 4.80359 25.0005 4.92403 25.9492 5.18224C26.7041 5.3926 27.3772 5.82926 27.8786 6.43394C28.42 7.14045 28.7852 7.96682 28.944 8.84405C29.1856 10.1076 29.2954 11.393 29.2715 12.6795V19.3578H27.3963V17.4116ZM23.037 17.6707C23.7277 17.6807 24.418 17.6321 25.1006 17.5256C25.5701 17.4591 26.0247 17.3119 26.4445 17.0902C26.7528 16.9274 27.0046 16.6744 27.1667 16.3646C27.3169 16.0476 27.3912 15.6997 27.3834 15.3487C27.3913 15.0018 27.3019 14.6597 27.1254 14.3614C26.922 14.0613 26.6322 13.8307 26.2949 13.7005C25.7991 13.5042 25.2779 13.3803 24.7472 13.3325C23.9617 13.2471 23.1719 13.2082 22.3819 13.2159C21.4455 13.2159 20.6872 13.2367 20.1119 13.2781C19.6539 13.2914 19.2016 13.3852 18.7758 13.5554C18.6336 13.6151 18.5047 13.7027 18.3966 13.813C18.2886 13.9234 18.2035 14.0543 18.1464 14.1981C18.0257 14.5691 17.9715 14.9587 17.9865 15.3487C17.9739 15.7488 18.0315 16.1479 18.1567 16.5279C18.221 16.6863 18.3158 16.8304 18.4358 16.9519C18.5558 17.0733 18.6985 17.1697 18.8558 17.2354C19.3385 17.4377 19.8526 17.5543 20.3751 17.58C21.0638 17.6526 21.9433 17.6811 23.037 17.6811V17.6707Z" fill="#222222"/>
<path d="M42.014 9.81719C42.0204 9.32622 41.9859 8.83557 41.9108 8.35039C41.8586 7.99334 41.6877 7.66454 41.4259 7.41745C41.1026 7.15241 40.7123 6.98284 40.2987 6.92765C39.625 6.81904 38.943 6.77133 38.2609 6.78512C37.5626 6.76353 36.8655 6.85721 36.1974 7.06241C35.7249 7.21175 35.298 7.47928 34.9566 7.83987C34.6543 8.18288 34.4439 8.59759 34.3453 9.04492C34.2345 9.55561 34.1809 10.0772 34.1854 10.5998V19.3514H32.3076V5.21466H34.1854V7.4615C34.2681 7.16592 34.3895 6.88269 34.5465 6.61926C34.7516 6.28038 35.0248 5.98822 35.3487 5.76147C35.7716 5.46199 36.2416 5.23598 36.739 5.09286C37.4333 4.89473 38.1533 4.803 38.8748 4.82075C39.6826 4.79614 40.4889 4.90649 41.2608 5.14728C41.8166 5.32748 42.312 5.6584 42.6924 6.10355C43.0472 6.55681 43.2854 7.09081 43.3863 7.65846C43.5134 8.36731 43.5738 9.0866 43.5668 9.80682L42.014 9.81719Z" fill="#222222"/>
<path d="M51.9293 19.6228C50.8582 19.6421 49.7887 19.5325 48.7437 19.2962C47.9354 19.1347 47.1913 18.7409 46.6015 18.1626C46.0118 17.5844 45.6018 16.8465 45.4213 16.0387C45.149 14.9373 45.024 13.8043 45.0499 12.6697C45.0236 11.381 45.1482 10.0937 45.4213 8.83428C45.6097 7.94272 46.0197 7.11359 46.613 6.42418C47.1882 5.80921 47.9281 5.37451 48.7437 5.17248C49.7854 4.91407 50.8564 4.79383 51.9293 4.81485C52.7101 4.80298 53.4896 4.88565 54.2508 5.06104C54.8479 5.20005 55.4167 5.44112 55.9326 5.77371C56.3825 6.0691 56.7678 6.45357 57.0649 6.90361C57.3509 7.33635 57.5806 7.80401 57.7485 8.29525C57.9297 8.85064 58.0449 9.42564 58.0915 10.0082C58.1535 10.6613 58.1844 11.3524 58.1844 12.0814L58.0271 12.8589H46.9148C46.8966 13.73 46.9832 14.6002 47.1728 15.4504C47.2826 16.0227 47.5784 16.5423 48.0137 16.9276C48.4663 17.263 49.0014 17.4682 49.5613 17.521C50.3464 17.6121 51.1364 17.6536 51.9267 17.6454C52.6396 17.6522 53.3525 17.6228 54.0625 17.5573C54.5261 17.5253 54.9807 17.4131 55.4064 17.2256C55.7123 17.09 55.9602 16.8493 56.1054 16.5466C56.2504 16.1865 56.318 15.7997 56.304 15.4115H58.1818C58.1985 16.0745 58.0909 16.7348 57.8646 17.3578C57.6543 17.8879 57.2869 18.3402 56.8121 18.6535C56.2244 19.0235 55.568 19.2695 54.8827 19.3766C53.9077 19.5483 52.9191 19.6307 51.9293 19.6228ZM51.9293 6.7844C51.305 6.7844 50.7453 6.80254 50.2526 6.83364C49.8162 6.85738 49.3836 6.92952 48.9629 7.04873C48.6214 7.14638 48.3017 7.30915 48.0214 7.52816C47.7654 7.73013 47.5508 7.98008 47.3894 8.26415C47.2024 8.63631 47.0836 9.03923 47.0386 9.45366C46.957 10.0661 46.9191 10.6836 46.9252 11.3014H56.3066C56.3301 10.5431 56.2485 9.78512 56.0641 9.04938C55.9223 8.54302 55.6563 8.08054 55.2903 7.70439C54.9145 7.34018 54.4443 7.08961 53.9335 6.98135C53.2751 6.83892 52.6026 6.77284 51.9293 6.7844Z" fill="#222222"/>
<path d="M85.0261 19.3528H83.1509V11.3735C83.1623 10.6501 83.1209 9.92688 83.0271 9.20958C82.9681 8.69922 82.7828 8.21184 82.488 7.79202C82.1988 7.41766 81.7986 7.14539 81.3453 7.01457C80.7147 6.83544 80.0606 6.75417 79.4055 6.77356C78.6726 6.75423 77.941 6.84774 77.2362 7.05085C76.7339 7.19736 76.2746 7.46414 75.8975 7.8283C75.5714 8.16117 75.3375 8.57391 75.2191 9.02559C75.0859 9.53286 75.0217 10.0559 75.0282 10.5805V19.345H73.1504V5.21347H75.0308V7.44735C75.0308 7.42143 75.0669 7.3411 75.1185 7.20116C75.1915 7.02486 75.2851 6.85785 75.3971 6.70359C75.5583 6.47932 75.7415 6.27183 75.9439 6.08422C76.2137 5.8379 76.5168 5.63113 76.8442 5.47003C77.2691 5.26296 77.7167 5.10641 78.1777 5.00355C78.7879 4.8721 79.4109 4.81038 80.0349 4.81956C80.6494 4.81218 81.2631 4.86775 81.8663 4.98541C82.3325 5.07712 82.781 5.24336 83.1947 5.4778C83.5481 5.68067 83.8549 5.95619 84.095 6.28635C84.3335 6.62698 84.5196 7.00177 84.647 7.39811C84.7929 7.12243 84.9657 6.86199 85.1629 6.62066C85.4423 6.28624 85.7742 5.99998 86.1456 5.77323C86.6371 5.47217 87.1686 5.24269 87.7242 5.09167C88.4815 4.89115 89.2628 4.79782 90.0457 4.81437C90.694 4.80426 91.3414 4.8686 91.9752 5.00614C92.4603 5.1098 92.9227 5.30123 93.3397 5.5711C93.7011 5.80996 94.0058 6.12582 94.2322 6.49627C94.4692 6.89445 94.6432 7.32721 94.7481 7.77906C94.8766 8.31496 94.9568 8.86138 94.9879 9.41172C95.0275 10.0129 95.0473 10.6651 95.0473 11.3683V19.3476H93.1694V11.3735C93.1778 10.6534 93.1338 9.93363 93.0379 9.21995C92.9797 8.70982 92.7953 8.22247 92.5014 7.80239C92.2112 7.42908 91.8114 7.15706 91.3587 7.02494C90.728 6.84605 90.0739 6.76478 89.4189 6.78392C88.6851 6.76461 87.9527 6.85812 87.247 7.06122C86.7453 7.20896 86.2862 7.47558 85.9083 7.83867C85.5822 8.17154 85.3483 8.58427 85.2299 9.03595C85.098 9.54346 85.0338 10.0663 85.039 10.5909L85.0261 19.3528Z" fill="#222222"/>
<path d="M132.885 19.6228C132.131 19.6387 131.378 19.5586 130.644 19.3844C130.141 19.2596 129.651 19.086 129.181 18.8661C128.803 18.6827 128.5 18.3743 128.322 17.9927C128.126 17.5936 127.979 17.2826 127.881 17.0598V19.3507H126.006V0.5H127.881V6.54082C127.993 6.33463 128.137 6.14747 128.307 5.98623C128.562 5.75015 128.856 5.55993 129.176 5.42388C129.648 5.22279 130.141 5.07755 130.646 4.99109C132.447 4.71331 134.285 4.77571 136.063 5.17509C136.87 5.37122 137.607 5.78733 138.194 6.37756C138.781 7.02094 139.192 7.80688 139.385 8.65808C139.881 11.0189 139.881 13.4576 139.385 15.8184C139.192 16.666 138.782 17.448 138.194 18.086C137.605 18.6713 136.868 19.0828 136.063 19.2755C135.023 19.5255 133.955 19.6422 132.885 19.6228ZM132.885 17.6584C133.516 17.6631 134.148 17.6345 134.776 17.5729C135.239 17.5316 135.694 17.4297 136.13 17.2697C136.475 17.1429 136.785 16.935 137.033 16.6633C137.28 16.3744 137.464 16.0361 137.572 15.6707C137.713 15.2012 137.8 14.7168 137.83 14.2272C137.871 13.6623 137.894 13.0015 137.894 12.2396C137.894 11.4777 137.871 10.8142 137.83 10.2467C137.8 9.75459 137.713 9.26764 137.572 8.79543C137.464 8.42951 137.28 8.09051 137.033 7.80029C136.786 7.52381 136.476 7.31133 136.13 7.18092C135.695 7.01563 135.239 6.91099 134.776 6.86994C134.148 6.80832 133.516 6.77978 132.885 6.78442C132.258 6.78442 131.704 6.80256 131.214 6.83884C130.774 6.86882 130.341 6.95593 129.924 7.098C129.573 7.2152 129.252 7.40601 128.98 7.65776C128.703 7.93261 128.489 8.26405 128.351 8.62958C128.169 9.11424 128.049 9.6202 127.995 10.1352C127.913 10.8492 127.875 11.5676 127.881 12.2862C127.875 12.9945 127.913 13.7025 127.995 14.4061C128.049 14.9119 128.169 15.4084 128.351 15.8832C128.489 16.2431 128.704 16.5685 128.98 16.8369C129.251 17.084 129.574 17.268 129.924 17.3759C130.343 17.507 130.776 17.5871 131.214 17.6144C131.704 17.6403 132.258 17.6584 132.885 17.6584Z" fill="#222222"/>
<path d="M153.704 17.4119C153.589 17.6755 153.441 17.9229 153.263 18.1479C153.056 18.4539 152.793 18.7178 152.489 18.9254C152.089 19.1776 151.647 19.3534 151.184 19.4437C150.478 19.5856 149.759 19.649 149.04 19.6329C148.029 19.646 147.018 19.5706 146.02 19.4074C145.303 19.2954 144.612 19.0586 143.977 18.7077C143.482 18.4259 143.079 18.0053 142.818 17.4975C142.563 16.9491 142.437 16.3484 142.452 15.743C142.44 15.1321 142.508 14.5222 142.653 13.9289C142.765 13.4795 142.964 13.0568 143.239 12.685C143.488 12.3591 143.808 12.0934 144.173 11.9076C144.567 11.709 144.986 11.5643 145.419 11.4774C145.922 11.3738 146.434 11.3123 146.948 11.2934C147.503 11.2675 148.091 11.2571 148.718 11.2571C149.466 11.2475 150.213 11.2943 150.954 11.397C151.455 11.4663 151.949 11.5853 152.427 11.7521C152.737 11.859 153.029 12.0147 153.291 12.2134C153.454 12.3415 153.596 12.4946 153.711 12.6669C153.711 11.7521 153.68 10.9694 153.619 10.3345C153.576 9.7851 153.474 9.24199 153.314 8.71481C153.204 8.33656 153.02 7.98417 152.773 7.6782C152.551 7.4214 152.272 7.22222 151.957 7.09771C151.596 6.95554 151.215 6.8682 150.828 6.83855C150.397 6.80227 149.907 6.78413 149.352 6.78413C148.492 6.78413 147.779 6.81091 147.211 6.86447C146.747 6.89379 146.292 6.99974 145.862 7.17804C145.562 7.3055 145.315 7.5323 145.161 7.82074C145.01 8.15854 144.94 8.52656 144.954 8.89622H143.079C143.061 8.25089 143.169 7.60831 143.396 7.00441C143.611 6.48645 143.979 6.04756 144.451 5.74753C145.045 5.38629 145.704 5.14673 146.391 5.04263C147.37 4.88042 148.36 4.80583 149.352 4.81976C150.335 4.79857 151.316 4.919 152.264 5.17739C153.02 5.38715 153.693 5.82391 154.194 6.42909C154.735 7.13561 155.1 7.96197 155.259 8.8392C155.501 10.1028 155.611 11.3882 155.587 12.6746V19.353H153.704V17.4119ZM149.344 17.6711C150.035 17.681 150.725 17.6325 151.408 17.526C151.878 17.4595 152.332 17.3122 152.752 17.0906C153.06 16.9277 153.312 16.6747 153.474 16.365C153.624 16.048 153.699 15.7001 153.691 15.3491C153.7 15.002 153.61 14.6595 153.433 14.3617C153.229 14.0616 152.94 13.8311 152.602 13.7009C152.107 13.5046 151.585 13.3806 151.055 13.3329C150.27 13.2475 149.481 13.2085 148.692 13.2163C147.753 13.2163 146.995 13.237 146.419 13.2785C145.962 13.2914 145.511 13.3853 145.086 13.5558C144.943 13.6149 144.813 13.7023 144.705 13.8127C144.596 13.9231 144.511 14.0543 144.454 14.1985C144.335 14.5698 144.28 14.9591 144.294 15.3491C144.281 15.7491 144.339 16.1483 144.464 16.5282C144.531 16.6908 144.63 16.838 144.755 16.961C144.88 17.084 145.028 17.1801 145.192 17.2435C145.674 17.4455 146.188 17.5621 146.711 17.5881C147.371 17.6529 148.251 17.6814 149.344 17.6814V17.6711Z" fill="#222222"/>
<path d="M165.502 19.6228C164.747 19.6386 163.993 19.5585 163.258 19.3844C162.756 19.2596 162.267 19.086 161.798 18.8661C161.416 18.6854 161.108 18.3778 160.926 17.9953C160.733 17.5962 160.586 17.2852 160.488 17.0624V19.3533H158.61V0.5H160.488V6.54082C160.6 6.33463 160.743 6.14747 160.913 5.98623C161.168 5.74957 161.462 5.55928 161.782 5.42388C162.254 5.22279 162.748 5.07755 163.253 4.99109C165.054 4.71331 166.891 4.77571 168.67 5.17509C169.476 5.37185 170.213 5.78786 170.8 6.37756C171.388 7.02094 171.798 7.80688 171.992 8.65808C172.487 11.0189 172.487 13.4576 171.992 15.8184C171.799 16.666 171.388 17.448 170.8 18.086C170.212 18.6708 169.475 19.0822 168.67 19.2755C167.632 19.5245 166.568 19.6411 165.502 19.6228ZM165.502 17.6584C166.133 17.663 166.764 17.6344 167.393 17.5729C167.855 17.5316 168.309 17.4297 168.744 17.2697C169.09 17.1425 169.4 16.9346 169.65 16.6633C169.896 16.3742 170.079 16.0359 170.186 15.6707C170.328 15.2012 170.414 14.7168 170.444 14.2272C170.485 13.6623 170.506 13.0015 170.506 12.2396C170.506 11.4777 170.485 10.8142 170.444 10.2467C170.414 9.75458 170.327 9.26762 170.186 8.79543C170.079 8.4297 169.896 8.09069 169.65 7.80029C169.401 7.52424 169.091 7.31187 168.744 7.18092C168.31 7.01561 167.855 6.91097 167.393 6.86994C166.764 6.80839 166.133 6.77984 165.502 6.78442C164.874 6.78442 164.317 6.80256 163.831 6.83884C163.391 6.86858 162.958 6.9557 162.541 7.098C162.19 7.21444 161.869 7.40435 161.597 7.65517C161.319 7.92935 161.104 8.26097 160.967 8.62699C160.785 9.1115 160.664 9.61748 160.609 10.1327C160.528 10.8467 160.491 11.565 160.498 12.2836C160.491 12.9919 160.528 13.6999 160.609 14.4035C160.664 14.9094 160.785 15.406 160.967 15.8806C161.105 16.241 161.32 16.5666 161.597 16.8343C161.868 17.0814 162.191 17.2654 162.541 17.3733C162.96 17.5047 163.393 17.5847 163.831 17.6118C164.319 17.6429 164.876 17.6584 165.502 17.6584Z" fill="#222222"/>
<path d="M173.859 5.21387H176.047L181.046 17.7801L185.784 5.25792H188.01L182.366 19.3946L182.052 20.185C181.899 20.5738 181.75 20.9444 181.595 21.2916C181.449 21.6257 181.268 21.9436 181.056 22.2401C180.622 22.8454 180.021 23.3102 179.328 23.5773C178.882 23.7489 178.418 23.8697 177.945 23.9375C177.317 24.029 176.684 24.0715 176.049 24.0645V22.1002C176.578 22.1056 177.106 22.0753 177.631 22.0095C178 21.9659 178.362 21.8789 178.711 21.7503C179.194 21.5709 179.597 21.2245 179.849 20.7733C179.967 20.5686 180.125 20.2058 180.125 20.2058L173.859 5.21387Z" fill="#222222"/>
<path d="M96.9559 5.21387H99.1433L104.147 17.7801L108.886 5.25792H111.096L105.45 19.3946L105.133 20.185C104.983 20.5738 104.831 20.9444 104.679 21.2916C104.531 21.6252 104.351 21.943 104.14 22.2401C103.704 22.844 103.104 23.3084 102.411 23.5773C101.965 23.7488 101.5 23.8697 101.026 23.9375C100.399 24.0292 99.7647 24.0717 99.1304 24.0645V22.1002C99.6598 22.1056 100.189 22.0753 100.714 22.0095C101.083 21.9656 101.446 21.8786 101.795 21.7503C102.051 21.6507 102.287 21.5069 102.494 21.3253C102.667 21.165 102.815 20.9788 102.932 20.7733C103.051 20.5686 103.206 20.2058 103.206 20.2058L96.9559 5.21387Z" fill="#222222"/>
<path d="M1.81087 30.9319C1.50649 30.7849 1.2485 30.5562 1.06541 30.2711C0.88829 29.9825 0.794495 29.65 0.794495 29.311C0.794495 28.9719 0.88829 28.6394 1.06541 28.3508C1.24865 28.0664 1.50667 27.8386 1.81087 27.6926C2.14869 27.5329 2.5184 27.4532 2.89166 27.4593C3.20347 27.455 3.51301 27.5131 3.8022 27.6303C4.06279 27.7362 4.29132 27.9086 4.46511 28.1305L4.17106 28.3197C4.0243 28.1387 3.83443 27.9979 3.61906 27.9102C3.38777 27.8177 3.14058 27.7719 2.89166 27.7755C2.59093 27.7699 2.29312 27.8356 2.02239 27.9673C1.77385 28.0862 1.5644 28.2741 1.41879 28.5089C1.30593 28.687 1.23176 28.8871 1.20114 29.096C1.17052 29.305 1.18415 29.518 1.24112 29.7213C1.2981 29.9246 1.39713 30.1135 1.53176 30.2756C1.66639 30.4378 1.83358 30.5696 2.02239 30.6624C2.29353 30.7929 2.59105 30.8585 2.89166 30.8542C3.14058 30.8578 3.38777 30.812 3.61906 30.7194C3.83395 30.6309 4.02362 30.4903 4.17106 30.31L4.46511 30.4966C4.29147 30.7193 4.06297 30.8926 3.8022 30.9993C3.51301 31.1165 3.20347 31.1747 2.89166 31.1704C2.51787 31.1761 2.14787 31.0945 1.81087 30.9319Z" fill="#222222"/>
<path d="M6.82774 30.9317C6.52461 30.7838 6.26766 30.5553 6.08487 30.2708C5.90955 29.983 5.81677 29.6521 5.81677 29.3146C5.81677 28.9771 5.90955 28.6462 6.08487 28.3583C6.26766 28.0739 6.52461 27.8453 6.82774 27.6975C7.15976 27.5404 7.52221 27.459 7.88919 27.459C8.25616 27.459 8.61861 27.5404 8.95063 27.6975C9.25376 27.8453 9.51071 28.0739 9.6935 28.3583C9.86882 28.6462 9.9616 28.9771 9.9616 29.3146C9.9616 29.6521 9.86882 29.983 9.6935 30.2708C9.51071 30.5553 9.25376 30.7838 8.95063 30.9317C8.61861 31.0887 8.25616 31.1702 7.88919 31.1702C7.52221 31.1702 7.15976 31.0887 6.82774 30.9317ZM8.74427 30.6596C8.98752 30.5335 9.19313 30.3448 9.34012 30.1128C9.48189 29.8709 9.55666 29.5953 9.55666 29.3146C9.55666 29.0339 9.48189 28.7583 9.34012 28.5164C9.19313 28.2844 8.98752 28.0957 8.74427 27.9696C8.47721 27.8416 8.18507 27.7752 7.88919 27.7752C7.5933 27.7752 7.30116 27.8416 7.0341 27.9696C6.79085 28.0957 6.58524 28.2844 6.43825 28.5164C6.29648 28.7583 6.22172 29.0339 6.22172 29.3146C6.22172 29.5953 6.29648 29.8709 6.43825 30.1128C6.58524 30.3448 6.79085 30.5335 7.0341 30.6596C7.30116 30.7876 7.5933 30.854 7.88919 30.854C8.18507 30.854 8.47721 30.7876 8.74427 30.6596Z" fill="#222222"/>
<path d="M15.2934 30.1617C15.2986 30.3074 15.2647 30.452 15.1953 30.5801C15.1259 30.7082 15.0234 30.8152 14.8987 30.8899C14.5373 31.0843 14.1292 31.174 13.7199 31.149H11.9143V27.495H13.6632C14.0393 27.4754 14.4138 27.5587 14.7465 27.736C14.868 27.8046 14.9688 27.9048 15.0382 28.0261C15.1077 28.1475 15.1433 28.2854 15.1412 28.4254C15.1466 28.6242 15.0733 28.8171 14.9374 28.9618C14.7814 29.1158 14.5843 29.2211 14.3699 29.265C14.9856 29.3531 15.2934 29.652 15.2934 30.1617ZM12.3141 29.1639H13.64C13.9245 29.1807 14.2082 29.1189 14.4602 28.9851C14.5507 28.9334 14.6252 28.8577 14.6757 28.7663C14.7262 28.6749 14.7507 28.5713 14.7465 28.4668C14.7518 28.3625 14.7281 28.2587 14.678 28.1672C14.6279 28.0756 14.5533 27.9999 14.4628 27.9485C14.2084 27.8194 13.9245 27.7604 13.64 27.7775H12.3064L12.3141 29.1639ZM14.8936 30.1565C14.9007 30.0498 14.8793 29.9431 14.8317 29.8474C14.7841 29.7517 14.712 29.6706 14.6227 29.6123C14.3613 29.4763 14.0677 29.4153 13.7741 29.436H12.3115V30.864H13.7096C14.5006 30.8571 14.8961 30.6178 14.8961 30.1461L14.8936 30.1565Z" fill="#222222"/>
<path d="M20.5119 27.6976C20.8121 27.8455 21.0664 28.0732 21.247 28.3559C21.4208 28.6457 21.5126 28.9777 21.5126 29.316C21.5126 29.6544 21.4208 29.9864 21.247 30.2762C21.0674 30.5598 20.8129 30.7877 20.5119 30.9344C20.1863 31.0953 19.8274 31.1761 19.4646 31.1703C19.1201 31.1756 18.7795 31.0974 18.4715 30.9422C18.1864 30.8011 17.9468 30.5819 17.7802 30.3099V32.4997H17.383V27.4877H17.7673V28.3481C17.9315 28.0674 18.1723 27.8399 18.4612 27.6925C18.7728 27.534 19.118 27.454 19.4672 27.4592C19.8293 27.4546 20.1873 27.5363 20.5119 27.6976ZM20.2978 30.6597C20.5439 30.5358 20.7516 30.3467 20.8988 30.1129C21.0405 29.871 21.1153 29.5954 21.1153 29.3147C21.1153 29.034 21.0405 28.7584 20.8988 28.5166C20.7516 28.2828 20.5439 28.0937 20.2978 27.9698C20.0303 27.8417 19.7377 27.7753 19.4414 27.7753C19.1451 27.7753 18.8525 27.8417 18.585 27.9698C18.3418 28.0959 18.1362 28.2846 17.9892 28.5166C17.8474 28.7584 17.7726 29.034 17.7726 29.3147C17.7726 29.5954 17.8474 29.871 17.9892 30.1129C18.1362 30.3449 18.3418 30.5336 18.585 30.6597C18.8525 30.7878 19.1451 30.8542 19.4414 30.8542C19.7377 30.8542 20.0303 30.7878 20.2978 30.6597Z" fill="#222222"/>
<path d="M27.012 29.3972H23.442C23.4521 29.6702 23.5418 29.9342 23.7 30.1565C23.8573 30.383 24.0731 30.5622 24.3242 30.6748C24.8436 30.8972 25.4272 30.9157 25.9596 30.7266C26.1799 30.6483 26.3781 30.5176 26.5374 30.3457L26.7669 30.5763C26.5777 30.7739 26.3455 30.9247 26.0885 31.0169C25.4392 31.2499 24.7251 31.2201 24.0972 30.9339C23.7894 30.7882 23.5271 30.5605 23.3388 30.2757C23.1545 29.9907 23.0592 29.6567 23.0654 29.3168C23.0593 28.9829 23.1471 28.6541 23.3186 28.368C23.4902 28.082 23.7386 27.8503 24.0353 27.6997C24.3509 27.5445 24.6976 27.4639 25.049 27.4639C25.4004 27.4639 25.7471 27.5445 26.0627 27.6997C26.354 27.8497 26.5991 28.0763 26.7721 28.3554C26.9448 28.642 27.0342 28.9715 27.03 29.3065L27.012 29.3972ZM24.2545 27.9382C24.028 28.0466 23.8343 28.2138 23.6933 28.4224C23.5523 28.6309 23.4691 28.8735 23.4523 29.1251H26.6302C26.6183 28.8736 26.5351 28.6308 26.3903 28.4254C26.2467 28.2186 26.0532 28.0519 25.828 27.9407C25.5828 27.822 25.3134 27.7625 25.0413 27.7671C24.7694 27.7626 24.5002 27.8212 24.2545 27.9382Z" fill="#222222"/>
<path d="M33.5018 27.4873V31.1413H33.1356V28.0471L31.3299 30.6723H31.1468L29.3412 28.0548V31.1413H28.9749V27.4873H29.3747L31.25 30.2525L33.133 27.4873H33.5018Z" fill="#222222"/>
<path d="M39.4112 29.396H35.8439C35.8529 29.6693 35.9427 29.9336 36.1018 30.1554C36.2585 30.3825 36.4745 30.5618 36.726 30.6737C37.2455 30.8961 37.829 30.9146 38.3614 30.7255C38.581 30.6472 38.7784 30.5164 38.9366 30.3445L39.1688 30.5752C38.979 30.7733 38.7458 30.9242 38.4878 31.0157C37.8393 31.2486 37.1261 31.2189 36.499 30.9328C36.1912 30.787 35.929 30.5594 35.7407 30.2746C35.5555 29.9898 35.4594 29.6558 35.4647 29.3157C35.4601 28.9821 35.5485 28.6539 35.7199 28.3681C35.8913 28.0823 36.1388 27.8504 36.4346 27.6986C36.7508 27.5441 37.0979 27.4639 37.4496 27.4639C37.8012 27.4639 38.1483 27.5441 38.4646 27.6986C38.7548 27.8489 38.9991 28.0755 39.1713 28.3543C39.3452 28.6404 39.4347 28.9702 39.4293 29.3053L39.4112 29.396ZM36.6538 27.937C36.4284 28.0456 36.2354 28.2119 36.0941 28.4191C35.9548 28.6294 35.8713 28.8721 35.8516 29.1239H39.0295C39.0172 28.873 38.935 28.6305 38.7922 28.4242C38.6482 28.2169 38.4537 28.05 38.2273 27.9396C37.9822 27.8206 37.7127 27.7611 37.4405 27.766C37.1687 27.7618 36.8996 27.8203 36.6538 27.937Z" fill="#222222"/>
<path d="M41.382 27.4873H41.7792V29.164H44.5934V27.4977H44.9906V31.1517H44.5934V29.4724H41.7818V31.1517H41.3845L41.382 27.4873Z" fill="#222222"/>
<path d="M47.3714 27.4873H47.7686V29.164H50.5802V27.4977H50.9775V31.1517H50.5802V29.4724H47.7686V31.1517H47.3714V27.4873Z" fill="#222222"/>
<path d="M53.9543 30.9316C53.6512 30.7838 53.3942 30.5552 53.2114 30.2708C53.0341 29.9836 52.9402 29.6524 52.9402 29.3145C52.9402 28.9766 53.0341 28.6454 53.2114 28.3583C53.3942 28.0738 53.6512 27.8453 53.9543 27.6974C54.2859 27.5404 54.6479 27.459 55.0145 27.459C55.381 27.459 55.743 27.5404 56.0746 27.6974C56.3778 27.8453 56.6347 28.0738 56.8175 28.3583C56.9948 28.6454 57.0887 28.9766 57.0887 29.3145C57.0887 29.6524 56.9948 29.9836 56.8175 30.2708C56.6347 30.5552 56.3778 30.7838 56.0746 30.9316C55.743 31.0886 55.381 31.1701 55.0145 31.1701C54.6479 31.1701 54.2859 31.0886 53.9543 30.9316ZM55.8683 30.6595C56.1128 30.5353 56.3189 30.3462 56.4641 30.1127C56.6077 29.8715 56.6836 29.5956 56.6836 29.3145C56.6836 29.0334 56.6077 28.7576 56.4641 28.5163C56.3189 28.2828 56.1128 28.0937 55.8683 27.9695C55.6016 27.8416 55.3099 27.7752 55.0145 27.7752C54.719 27.7752 54.4273 27.8416 54.1607 27.9695C53.9161 28.0937 53.71 28.2828 53.5648 28.5163C53.4212 28.7576 53.3453 29.0334 53.3453 29.3145C53.3453 29.5956 53.4212 29.8715 53.5648 30.1127C53.71 30.3462 53.9161 30.5353 54.1607 30.6595C54.4273 30.7875 54.719 30.8539 55.0145 30.8539C55.3099 30.8539 55.6016 30.7875 55.8683 30.6595Z" fill="#222222"/>
<path d="M62.5851 29.396H59.0177C59.0267 29.6693 59.1165 29.9336 59.2757 30.1554C59.432 30.3818 59.647 30.561 59.8973 30.6737C60.4176 30.8963 61.002 30.9147 61.5353 30.7255C61.7549 30.6472 61.9523 30.5164 62.1105 30.3445L62.34 30.5752C62.1518 30.7739 61.9193 30.9249 61.6616 31.0157C61.0132 31.2486 60.2999 31.2189 59.6729 30.9328C59.3639 30.7878 59.1006 30.56 58.912 30.2746C58.7287 29.989 58.6336 29.6554 58.6385 29.3157C58.6324 28.9818 58.7202 28.6529 58.8918 28.3669C59.0633 28.0808 59.3117 27.8492 59.6084 27.6986C59.9247 27.5441 60.2718 27.4639 60.6234 27.4639C60.9751 27.4639 61.3222 27.5441 61.6384 27.6986C61.9287 27.8489 62.173 28.0755 62.3452 28.3543C62.5191 28.6404 62.6085 28.9702 62.6031 29.3053L62.5851 29.396ZM59.8277 27.937C59.6023 28.0456 59.4092 28.2119 59.2679 28.4191C59.1275 28.6288 59.0439 28.8718 59.0255 29.1239H62.2033C62.1911 28.873 62.1089 28.6305 61.966 28.4242C61.8208 28.218 61.6266 28.0514 61.4011 27.9396C61.1561 27.8206 60.8866 27.7611 60.6144 27.766C60.3426 27.7618 60.0734 27.8203 59.8277 27.937Z" fill="#222222"/>
<path d="M71.1616 30.8314V32.0494H70.7876V31.1398H66.8669V32.0494H66.4851V30.8314H66.7431C67.0216 30.8184 67.2151 30.624 67.3183 30.2535C67.4414 29.7435 67.5148 29.2228 67.5375 28.6986L67.5917 27.4961H70.509V30.8417L71.1616 30.8314ZM67.731 30.0954C67.7145 30.2415 67.6677 30.3826 67.5935 30.5094C67.5192 30.6362 67.4193 30.7459 67.3002 30.8314H70.0963V27.7993H67.9373L67.8883 28.7115C67.8744 29.1763 67.8226 29.6391 67.7336 30.0954H67.731Z" fill="#222222"/>
<path d="M73.5991 30.9316C73.296 30.7838 73.039 30.5552 72.8562 30.2708C72.6789 29.9836 72.585 29.6524 72.585 29.3145C72.585 28.9766 72.6789 28.6454 72.8562 28.3583C73.039 28.0738 73.296 27.8453 73.5991 27.6974C73.9307 27.5404 74.2927 27.459 74.6592 27.459C75.0258 27.459 75.3878 27.5404 75.7194 27.6974C76.0236 27.8437 76.2809 28.0726 76.4623 28.3583C76.6396 28.6454 76.7335 28.9766 76.7335 29.3145C76.7335 29.6524 76.6396 29.9836 76.4623 30.2708C76.2809 30.5564 76.0236 30.7854 75.7194 30.9316C75.3878 31.0886 75.0258 31.1701 74.6592 31.1701C74.2927 31.1701 73.9307 31.0886 73.5991 30.9316ZM75.513 30.6595C75.7576 30.5353 75.9637 30.3462 76.1089 30.1127C76.2525 29.8715 76.3284 29.5956 76.3284 29.3145C76.3284 29.0334 76.2525 28.7576 76.1089 28.5163C75.9637 28.2828 75.7576 28.0937 75.513 27.9695C75.2464 27.8416 74.9547 27.7752 74.6592 27.7752C74.3638 27.7752 74.0721 27.8416 73.8054 27.9695C73.5622 28.0957 73.3566 28.2843 73.2096 28.5163C73.066 28.7576 72.9901 29.0334 72.9901 29.3145C72.9901 29.5956 73.066 29.8715 73.2096 30.1127C73.3566 30.3447 73.5622 30.5334 73.8054 30.6595C74.0721 30.7875 74.3638 30.8539 74.6592 30.8539C74.9547 30.8539 75.2464 30.7875 75.513 30.6595Z" fill="#222222"/>
<path d="M84.2729 27.4873V31.1413H78.6961V27.4873H79.0933V30.833H81.2936V27.4873H81.6908V30.833H83.8756V27.4873H84.2729Z" fill="#222222"/>
<path d="M88.0621 29.4465H87.0535V31.1413H86.6563V27.4873H87.0535V29.1459H88.0621L89.6278 27.4873H90.0637L88.3794 29.2573L90.185 31.1413H89.7078L88.0621 29.4465Z" fill="#222222"/>
<path d="M92.277 30.9316C91.9728 30.7854 91.7155 30.5564 91.5341 30.2708C91.3568 29.9836 91.2629 29.6524 91.2629 29.3145C91.2629 28.9766 91.3568 28.6454 91.5341 28.3583C91.7155 28.0726 91.9728 27.8437 92.277 27.6974C92.6086 27.5404 92.9706 27.459 93.3372 27.459C93.7037 27.459 94.0657 27.5404 94.3973 27.6974C94.7004 27.8453 94.9574 28.0738 95.1402 28.3583C95.3175 28.6454 95.4114 28.9766 95.4114 29.3145C95.4114 29.6524 95.3175 29.9836 95.1402 30.2708C94.9574 30.5552 94.7004 30.7838 94.3973 30.9316C94.0657 31.0886 93.7037 31.1701 93.3372 31.1701C92.9706 31.1701 92.6086 31.0886 92.277 30.9316ZM94.191 30.6595C94.4342 30.5334 94.6398 30.3447 94.7868 30.1127C94.9304 29.8715 95.0063 29.5956 95.0063 29.3145C95.0063 29.0334 94.9304 28.7576 94.7868 28.5163C94.6398 28.2843 94.4342 28.0957 94.191 27.9695C93.9243 27.8416 93.6326 27.7752 93.3372 27.7752C93.0417 27.7752 92.75 27.8416 92.4834 27.9695C92.2388 28.0937 92.0327 28.2828 91.8875 28.5163C91.7439 28.7576 91.668 29.0334 91.668 29.3145C91.668 29.5956 91.7439 29.8715 91.8875 30.1127C92.0327 30.3462 92.2388 30.5353 92.4834 30.6595C92.75 30.7875 93.0417 30.8539 93.3372 30.8539C93.6326 30.8539 93.9243 30.7875 94.191 30.6595Z" fill="#222222"/>
<path d="M100.598 27.4873V31.1413H100.201V27.8009H98.0393L97.9877 28.7753C97.9661 29.2002 97.9187 29.6234 97.8458 30.0425C97.7991 30.3387 97.6881 30.6209 97.5208 30.8692C97.4488 30.9704 97.3528 31.052 97.2416 31.1067C97.1304 31.1615 97.0074 31.1876 96.8837 31.1828C96.7688 31.1783 96.6547 31.1618 96.5432 31.1336L96.5819 30.833C96.6445 30.8483 96.7084 30.8578 96.7728 30.8615C96.8769 30.8665 96.9804 30.8423 97.0715 30.7915C97.1627 30.7406 97.2379 30.6653 97.2887 30.5738C97.4141 30.3542 97.4956 30.1121 97.5286 29.8611C97.5698 29.5761 97.6034 29.2055 97.6317 28.7468L97.704 27.4873H100.598Z" fill="#222222"/>
<path d="M105.817 29.1148C105.95 29.2107 106.057 29.3389 106.128 29.4875C106.199 29.6361 106.231 29.8003 106.222 29.9648C106.231 30.1372 106.196 30.3092 106.122 30.4647C106.047 30.6202 105.934 30.754 105.793 30.8537C105.419 31.0822 104.982 31.1873 104.545 31.1543L102.982 31.1413V27.4873H103.379V28.8038L104.64 28.8168C105.053 28.7943 105.463 28.8982 105.817 29.1148ZM105.492 30.6515C105.6 30.5746 105.686 30.4711 105.743 30.3508C105.8 30.2306 105.825 30.0976 105.817 29.9648C105.825 29.8372 105.8 29.7097 105.744 29.5947C105.689 29.4798 105.604 29.3813 105.499 29.3091C105.205 29.1467 104.872 29.0687 104.537 29.0837H103.379V30.8692L104.537 30.8822C104.871 30.906 105.205 30.8254 105.492 30.6515Z" fill="#222222"/>
<path d="M108.048 27.4873H108.445V29.164H111.259V27.4977H111.659V31.1517H111.262V29.4724H108.437V31.1517H108.048V27.4873Z" fill="#222222"/>
<path d="M114.623 30.9316C114.32 30.7838 114.063 30.5552 113.88 30.2708C113.702 29.9836 113.609 29.6524 113.609 29.3145C113.609 28.9766 113.702 28.6454 113.88 28.3583C114.063 28.0738 114.32 27.8453 114.623 27.6974C114.954 27.5404 115.316 27.459 115.683 27.459C116.049 27.459 116.411 27.5404 116.743 27.6974C117.047 27.8437 117.304 28.0726 117.486 28.3583C117.663 28.6454 117.757 28.9766 117.757 29.3145C117.757 29.6524 117.663 29.9836 117.486 30.2708C117.304 30.5564 117.047 30.7854 116.743 30.9316C116.411 31.0886 116.049 31.1701 115.683 31.1701C115.316 31.1701 114.954 31.0886 114.623 30.9316ZM116.537 30.6595C116.781 30.5353 116.987 30.3462 117.132 30.1127C117.276 29.8715 117.352 29.5956 117.352 29.3145C117.352 29.0334 117.276 28.7576 117.132 28.5163C116.987 28.2828 116.781 28.0937 116.537 27.9695C116.27 27.8416 115.978 27.7752 115.683 27.7752C115.387 27.7752 115.096 27.8416 114.829 27.9695C114.588 28.0964 114.384 28.285 114.238 28.5163C114.095 28.7576 114.019 29.0334 114.019 29.3145C114.019 29.5956 114.095 29.8715 114.238 30.1127C114.385 30.3447 114.591 30.5334 114.834 30.6595C115.101 30.7875 115.392 30.8539 115.688 30.8539C115.983 30.8539 116.275 30.7875 116.542 30.6595H116.537Z" fill="#222222"/>
<path d="M123.266 29.396H119.686C119.695 29.6693 119.785 29.9336 119.944 30.1554C120.101 30.3825 120.317 30.5618 120.568 30.6737C121.088 30.8961 121.671 30.9146 122.203 30.7255C122.423 30.6472 122.62 30.5164 122.779 30.3445L123.011 30.5752C122.821 30.7733 122.588 30.9242 122.33 31.0157C121.681 31.2486 120.968 31.2189 120.341 30.9328C120.033 30.787 119.771 30.5594 119.583 30.2746C119.398 29.9898 119.302 29.6558 119.307 29.3157C119.302 28.9821 119.391 28.6539 119.562 28.3681C119.733 28.0823 119.981 27.8504 120.277 27.6986C120.593 27.5441 120.94 27.4639 121.292 27.4639C121.643 27.4639 121.99 27.5441 122.307 27.6986C122.597 27.8489 122.841 28.0755 123.013 28.3543C123.187 28.6404 123.277 28.9702 123.271 29.3053L123.266 29.396ZM120.511 27.937C120.285 28.0449 120.091 28.2112 119.949 28.4191C119.81 28.6294 119.726 28.8721 119.707 29.1239H122.884C122.872 28.873 122.79 28.6305 122.647 28.4242C122.503 28.2169 122.309 28.05 122.082 27.9396C121.837 27.8206 121.568 27.7611 121.296 27.766C121.02 27.7595 120.747 27.8181 120.498 27.937H120.511Z" fill="#222222"/>
<path d="M128.526 30.9316C128.222 30.7854 127.964 30.5564 127.783 30.2708C127.606 29.9836 127.512 29.6524 127.512 29.3145C127.512 28.9766 127.606 28.6454 127.783 28.3583C127.964 28.0726 128.222 27.8437 128.526 27.6974C128.858 27.5404 129.22 27.459 129.586 27.459C129.953 27.459 130.315 27.5404 130.646 27.6974C130.949 27.8453 131.206 28.0738 131.389 28.3583C131.566 28.6454 131.66 28.9766 131.66 29.3145C131.66 29.6524 131.566 29.9836 131.389 30.2708C131.206 30.5552 130.949 30.7838 130.646 30.9316C130.315 31.0886 129.953 31.1701 129.586 31.1701C129.22 31.1701 128.858 31.0886 128.526 30.9316ZM130.44 30.6595C130.683 30.5334 130.889 30.3447 131.036 30.1127C131.179 29.8715 131.255 29.5956 131.255 29.3145C131.255 29.0334 131.179 28.7576 131.036 28.5163C130.889 28.2843 130.683 28.0957 130.44 27.9695C130.173 27.8416 129.882 27.7752 129.586 27.7752C129.291 27.7752 128.999 27.8416 128.732 27.9695C128.488 28.0937 128.282 28.2828 128.136 28.5163C127.993 28.7576 127.917 29.0334 127.917 29.3145C127.917 29.5956 127.993 29.8715 128.136 30.1127C128.282 30.3462 128.488 30.5353 128.732 30.6595C128.999 30.7875 129.291 30.8539 129.586 30.8539C129.882 30.8539 130.173 30.7875 130.44 30.6595Z" fill="#222222"/>
<path d="M136.571 27.7719C136.86 27.9143 137.103 28.134 137.275 28.4068C137.45 28.688 137.539 29.0138 137.533 29.345C137.54 29.6783 137.451 30.0066 137.277 30.2903C137.103 30.574 136.85 30.801 136.551 30.9439C136.22 31.105 135.857 31.1857 135.49 31.1797C135.083 31.1924 134.68 31.0901 134.327 30.8843C134.006 30.687 133.752 30.3971 133.597 30.0524C133.42 29.656 133.331 29.225 133.339 28.7904C133.325 28.3273 133.401 27.866 133.564 27.4324C133.703 27.0877 133.941 26.792 134.247 26.5824C134.605 26.354 135.002 26.1957 135.418 26.1159L137.255 25.7246L137.319 26.0537L135.57 26.4165C135.202 26.4844 134.849 26.6159 134.526 26.8053C134.261 26.9732 134.052 27.2157 133.925 27.5024C133.781 27.8602 133.71 28.2438 133.718 28.6297C133.855 28.2953 134.098 28.0156 134.41 27.8341C134.753 27.6363 135.144 27.536 135.539 27.5438C135.896 27.537 136.25 27.6151 136.571 27.7719ZM136.339 30.6822C136.578 30.5583 136.778 30.3698 136.917 30.138C137.056 29.903 137.129 29.634 137.126 29.3605C137.13 29.0868 137.058 28.8174 136.917 28.583C136.779 28.358 136.579 28.178 136.342 28.0647C136.078 27.9364 135.788 27.8725 135.496 27.8782C135.202 27.8728 134.911 27.9367 134.647 28.0647C134.407 28.177 134.206 28.3572 134.067 28.583C133.926 28.8176 133.855 29.087 133.86 29.3605C133.856 29.6338 133.928 29.9028 134.067 30.138C134.205 30.3705 134.406 30.5591 134.647 30.6822C134.911 30.8101 135.2 30.8765 135.493 30.8765C135.786 30.8765 136.075 30.8101 136.339 30.6822Z" fill="#222222"/>
<path d="M142.638 27.6976C142.938 27.8455 143.192 28.0731 143.373 28.3559C143.547 28.6457 143.639 28.9776 143.639 29.316C143.639 29.6544 143.547 29.9863 143.373 30.2762C143.193 30.5598 142.939 30.7877 142.638 30.9344C142.311 31.0953 141.952 31.1761 141.588 31.1702C141.244 31.1753 140.903 31.0971 140.595 30.9422C140.31 30.8003 140.071 30.5813 139.904 30.3099V32.4997H139.517V27.4877H139.899V28.3481C140.064 28.0678 140.306 27.8405 140.595 27.6924C140.906 27.5343 141.25 27.4543 141.598 27.4592C141.959 27.4559 142.315 27.5376 142.638 27.6976ZM142.424 30.6597C142.669 30.5356 142.876 30.3465 143.022 30.1129C143.166 29.8717 143.242 29.5958 143.242 29.3147C143.242 29.0336 143.166 28.7578 143.022 28.5165C142.876 28.2829 142.669 28.0939 142.424 27.9697C142.157 27.8375 141.862 27.7708 141.565 27.7754C141.269 27.7706 140.976 27.8372 140.711 27.9697C140.466 28.0939 140.26 28.283 140.115 28.5165C139.972 28.7578 139.896 29.0336 139.896 29.3147C139.896 29.5958 139.972 29.8717 140.115 30.1129C140.26 30.3464 140.466 30.5355 140.711 30.6597C140.976 30.7922 141.269 30.8589 141.565 30.8541C141.862 30.8586 142.157 30.792 142.424 30.6597Z" fill="#222222"/>
<path d="M148.142 27.8075C148.284 27.9344 148.395 28.0921 148.466 28.2687C148.538 28.4452 148.568 28.6358 148.555 28.826V31.1428H148.173V30.4923C148.035 30.713 147.833 30.8872 147.596 30.9925C147.307 31.1185 146.994 31.1795 146.68 31.1713C146.295 31.1919 145.914 31.0914 145.589 30.8837C145.468 30.8017 145.368 30.6918 145.298 30.5631C145.228 30.4343 145.19 30.2906 145.187 30.1441C145.184 29.9975 145.216 29.8523 145.281 29.7208C145.345 29.5893 145.44 29.4753 145.558 29.3883C145.911 29.171 146.324 29.072 146.737 29.1059H148.158V28.8104C148.168 28.6656 148.144 28.5205 148.09 28.3858C148.036 28.2512 147.953 28.1306 147.846 28.033C147.579 27.8411 147.254 27.7494 146.928 27.7738C146.659 27.7728 146.391 27.8148 146.136 27.8982C145.905 27.9721 145.69 28.0862 145.499 28.2351L145.3 27.976C145.523 27.8039 145.776 27.6747 146.045 27.595C146.341 27.5032 146.649 27.4569 146.958 27.4577C147.382 27.431 147.801 27.5548 148.142 27.8075ZM147.614 30.6737C147.856 30.5351 148.047 30.3215 148.158 30.0647V29.378H146.739C146.431 29.3535 146.123 29.4221 145.854 29.5749C145.767 29.634 145.696 29.7145 145.647 29.8087C145.599 29.903 145.575 30.008 145.578 30.114C145.576 30.226 145.602 30.3367 145.655 30.4353C145.708 30.5339 145.786 30.617 145.88 30.6763C146.137 30.8288 146.434 30.9009 146.731 30.8837C147.039 30.894 147.344 30.8216 147.614 30.6737Z" fill="#222222"/>
<path d="M153.278 29.5424C153.359 29.6099 153.425 29.6947 153.469 29.7906C153.514 29.8865 153.537 29.9911 153.536 30.097C153.537 30.2032 153.515 30.3084 153.473 30.406C153.432 30.5036 153.371 30.5916 153.294 30.6645C153.109 30.8424 152.884 30.9723 152.639 31.0429C152.348 31.1343 152.045 31.1797 151.741 31.1777C151.447 31.1779 151.154 31.136 150.872 31.0533C150.605 30.9804 150.354 30.8611 150.129 30.7008L150.289 30.4417C150.488 30.5889 150.713 30.6979 150.952 30.763C151.203 30.8366 151.464 30.8741 151.725 30.8744C152.07 30.8854 152.411 30.8097 152.719 30.6542C152.835 30.6064 152.935 30.526 153.007 30.4226C153.078 30.3191 153.119 30.1971 153.124 30.0711C153.124 29.9609 153.092 29.8531 153.032 29.761C152.972 29.6688 152.886 29.5964 152.786 29.5528C152.503 29.4156 152.191 29.3514 151.878 29.3662H151.21V29.107H151.862C152.146 29.1176 152.428 29.0571 152.682 28.9308C152.776 28.8928 152.856 28.8282 152.914 28.7448C152.971 28.6615 153.003 28.563 153.005 28.4617C153.002 28.3504 152.967 28.2423 152.904 28.1504C152.841 28.0585 152.754 27.9867 152.651 27.9434C152.37 27.8089 152.06 27.7449 151.749 27.7569C151.291 27.7556 150.839 27.8639 150.431 28.073L150.312 27.7931C150.774 27.566 151.283 27.449 151.798 27.4511C152.197 27.435 152.594 27.5243 152.948 27.7102C153.085 27.7709 153.202 27.8704 153.284 27.9964C153.366 28.1225 153.41 28.2697 153.41 28.4203C153.409 28.516 153.388 28.6105 153.349 28.6976C153.309 28.7847 153.252 28.8624 153.18 28.9256C153.006 29.0795 152.795 29.1872 152.569 29.2392C152.83 29.2692 153.076 29.3746 153.278 29.5424Z" fill="#222222"/>
<path d="M156.17 30.9317C155.867 30.7838 155.61 30.5553 155.427 30.2708C155.252 29.983 155.159 29.6521 155.159 29.3146C155.159 28.9771 155.252 28.6462 155.427 28.3583C155.61 28.0739 155.867 27.8453 156.17 27.6975C156.502 27.5404 156.864 27.459 157.231 27.459C157.598 27.459 157.961 27.5404 158.293 27.6975C158.596 27.8453 158.853 28.0739 159.035 28.3583C159.211 28.6462 159.304 28.9771 159.304 29.3146C159.304 29.6521 159.211 29.983 159.035 30.2708C158.853 30.5553 158.596 30.7838 158.293 30.9317C157.961 31.0887 157.598 31.1702 157.231 31.1702C156.864 31.1702 156.502 31.0887 156.17 30.9317ZM158.084 30.6596C158.328 30.5354 158.534 30.3463 158.68 30.1128C158.823 29.8715 158.899 29.5957 158.899 29.3146C158.899 29.0335 158.823 28.7576 158.68 28.5164C158.534 28.2829 158.328 28.0938 158.084 27.9696C157.817 27.8417 157.525 27.7753 157.23 27.7753C156.934 27.7753 156.643 27.8417 156.376 27.9696C156.133 28.0957 155.927 28.2844 155.78 28.5164C155.638 28.7583 155.564 29.0339 155.564 29.3146C155.564 29.5953 155.638 29.8709 155.78 30.1128C155.927 30.3448 156.133 30.5335 156.376 30.6596C156.643 30.7875 156.934 30.8539 157.23 30.8539C157.525 30.8539 157.817 30.7875 158.084 30.6596Z" fill="#222222"/>
<path d="M164.635 30.1617C164.641 30.3075 164.607 30.452 164.537 30.5801C164.468 30.7082 164.365 30.8152 164.241 30.8899C163.879 31.0844 163.471 31.1741 163.062 31.1491H161.256V27.4951H163.003C163.38 27.4752 163.755 27.5585 164.089 27.7361C164.211 27.8037 164.312 27.9038 164.381 28.0254C164.45 28.147 164.485 28.2854 164.481 28.4254C164.484 28.5237 164.468 28.6217 164.433 28.7137C164.399 28.8058 164.346 28.8901 164.279 28.9619C164.123 29.1154 163.926 29.2206 163.712 29.2651C164.328 29.3532 164.635 29.6521 164.635 30.1617ZM161.656 29.164H162.99C163.273 29.181 163.556 29.1191 163.807 28.9852C163.898 28.9335 163.972 28.8578 164.023 28.7664C164.073 28.6749 164.098 28.5713 164.094 28.4669C164.1 28.3627 164.076 28.259 164.027 28.1675C163.977 28.0759 163.903 28.0001 163.813 27.9486C163.558 27.8195 163.274 27.7605 162.99 27.7775H161.656V29.164ZM164.236 30.1565C164.243 30.0498 164.221 29.9431 164.174 29.8475C164.126 29.7518 164.054 29.6706 163.965 29.6123C163.702 29.4764 163.408 29.4154 163.113 29.4361H161.654V30.864H163.052C163.843 30.8571 164.238 30.6178 164.238 30.1462L164.236 30.1565Z" fill="#222222"/>
<path d="M169.273 27.8075C169.415 27.9344 169.526 28.0921 169.597 28.2687C169.669 28.4452 169.699 28.6358 169.686 28.826V31.1428H169.307V30.4923C169.166 30.7126 168.965 30.8865 168.726 30.9925C168.439 31.1183 168.127 31.1793 167.813 31.1713C167.428 31.1923 167.045 31.0917 166.72 30.8837C166.599 30.8013 166.5 30.6913 166.43 30.5626C166.361 30.4339 166.323 30.2904 166.32 30.144C166.317 29.9977 166.349 29.8527 166.413 29.7212C166.477 29.5897 166.572 29.4756 166.689 29.3883C167.042 29.171 167.455 29.072 167.868 29.1059H169.289V28.8104C169.298 28.6656 169.275 28.5205 169.221 28.3858C169.167 28.2512 169.084 28.1306 168.977 28.033C168.71 27.8411 168.385 27.7494 168.058 27.7738C167.79 27.7726 167.524 27.8146 167.269 27.8982C167.038 27.9719 166.821 28.0859 166.629 28.2351L166.431 27.976C166.654 27.8039 166.906 27.6747 167.176 27.595C167.472 27.5032 167.78 27.4569 168.089 27.4577C168.513 27.431 168.932 27.5548 169.273 27.8075ZM168.757 30.6737C168.998 30.5337 169.188 30.3204 169.299 30.0647V29.378H167.886C167.578 29.3535 167.27 29.4221 167.001 29.5749C166.914 29.6342 166.843 29.7147 166.795 29.809C166.747 29.9033 166.724 30.0082 166.727 30.114C166.725 30.226 166.751 30.3367 166.804 30.4353C166.857 30.5339 166.935 30.617 167.029 30.6763C167.285 30.8288 167.581 30.901 167.878 30.8837C168.181 30.8913 168.481 30.8189 168.747 30.6737H168.757Z" fill="#222222"/>
<path d="M171.966 27.4873H172.364V29.164H175.178V27.4977H175.575V31.1517H175.178V29.4724H172.364V31.1517H171.966V27.4873Z" fill="#222222"/>
<path d="M177.95 27.4873H178.348V30.5971L181.301 27.4873H181.652V31.1413H181.255V28.0315L178.299 31.1413H177.95V27.4873Z" fill="#222222"/>
<path d="M187.577 29.396H184.01C184.019 29.6693 184.108 29.9336 184.268 30.1554C184.424 30.3825 184.64 30.5618 184.892 30.6737C185.411 30.8961 185.995 30.9146 186.527 30.7255C186.747 30.6472 186.944 30.5164 187.102 30.3445L187.335 30.5752C187.145 30.7733 186.912 30.9242 186.654 31.0157C186.005 31.2486 185.292 31.2189 184.665 30.9328C184.357 30.787 184.095 30.5594 183.906 30.2746C183.721 29.9898 183.625 29.6558 183.63 29.3157C183.626 28.9821 183.714 28.6539 183.886 28.3681C184.057 28.0823 184.305 27.8504 184.6 27.6986C184.917 27.5441 185.264 27.4639 185.615 27.4639C185.967 27.4639 186.314 27.5441 186.63 27.6986C186.921 27.8489 187.165 28.0755 187.337 28.3543C187.511 28.6404 187.6 28.9702 187.595 29.3053L187.577 29.396ZM184.822 27.937C184.596 28.0449 184.401 28.2112 184.26 28.4191C184.121 28.6294 184.037 28.8721 184.017 29.1239H187.195C187.183 28.873 187.101 28.6305 186.958 28.4242C186.814 28.2169 186.619 28.05 186.393 27.9396C186.148 27.8206 185.878 27.7611 185.606 27.766C185.335 27.7615 185.067 27.8201 184.822 27.937Z" fill="#222222"/>
</g>
<defs>
<clipPath id="clip0_3343_4155">
<rect width="188" height="32" fill="white" transform="translate(0 0.5)"/>
</clipPath>
</defs>
</svg>
