<svg width="33" height="33" viewBox="0 0 33 33" fill="none" xmlns="http://www.w3.org/2000/svg">
<path d="M5.87776 19.2521C5.64212 19.0244 5.32608 18.8994 5 18.8994C4.67392 18.8994 4.35788 19.0244 4.12224 19.2521C3.88602 19.4803 3.75 19.7936 3.75 20.1241V23.7474C3.75 24.6544 4.12307 25.5207 4.78125 26.1566C5.43884 26.792 6.32718 27.1461 7.25 27.1461H25.25C26.1728 27.1461 27.0612 26.792 27.7187 26.1566C28.3769 25.5207 28.75 24.6544 28.75 23.7474V20.1241C28.75 19.7936 28.614 19.4803 28.3778 19.2521C28.1421 19.0244 27.8261 18.8994 27.5 18.8994C27.1739 18.8994 26.8579 19.0244 26.6222 19.2521C26.386 19.4803 26.25 19.7936 26.25 20.1241V23.7474C26.25 23.9935 26.149 24.2332 25.9632 24.4127C25.7769 24.5927 25.5207 24.6967 25.25 24.6967H7.25C6.97934 24.6967 6.72309 24.5927 6.53677 24.4127C6.35103 24.2332 6.25 23.9935 6.25 23.7474V20.1241C6.25 19.7936 6.11398 19.4803 5.87776 19.2521Z" fill="white" stroke="white"/>
<path d="M19.8715 16.4974L19.8716 16.4973C20.1074 16.2695 20.4237 16.1444 20.75 16.1444C21.0764 16.1444 21.3926 16.2695 21.6285 16.4973C21.8649 16.7258 22.001 17.0393 22.001 17.37C22.001 17.7007 21.8649 18.0142 21.6285 18.2426L17.1289 22.5902L19.8715 16.4974ZM19.8715 16.4974L17.5 18.7899M19.8715 16.4974L17.5 18.7899M17.5 18.7899V7.22467C17.5 6.89421 17.364 6.58092 17.1278 6.35268C16.8922 6.125 16.5761 6 16.25 6C15.9239 6 15.6079 6.125 15.3723 6.35268C15.1361 6.58092 15 6.89421 15 7.22467V18.7899L12.6285 16.4974L12.6285 16.4973C12.3926 16.2695 12.0764 16.1444 11.75 16.1444C11.4237 16.1444 11.1074 16.2695 10.8716 16.4973C10.6352 16.7257 10.4991 17.0393 10.4991 17.37C10.4991 17.7007 10.6352 18.0142 10.8716 18.2426L15.3712 22.5902L17.5 18.7899ZM15.7765 22.8527C15.6261 22.7924 15.4884 22.7036 15.3716 22.5906L15.7765 22.8527ZM15.7765 22.8527C15.9271 22.9131 16.088 22.9439 16.25 22.9439M15.7765 22.8527L16.25 22.9439M16.25 22.9439C16.4121 22.9439 16.573 22.9131 16.7236 22.8527M16.25 22.9439L16.7236 22.8527M16.7236 22.8527C16.874 22.7924 17.0117 22.7036 17.1285 22.5906L16.7236 22.8527Z" fill="white" stroke="white"/>
</svg>
